<svg width="15" height="12" viewBox="0 0 15 12" fill="none" xmlns="http://www.w3.org/2000/svg">
<path d="M13.5459 9.07701V11.5H3.03366V10.9H11.1747C11.5757 10.9 11.9668 10.7627 12.2794 10.5088L12.2803 10.508C12.4285 10.3871 12.9625 9.92186 13.5459 9.07701ZM11.2645 1.3H11.5848H13.5459V1.89999H3.03364V1.3H4.99468H5.31503H5.49468H5.81503H7.86591H8.18626H8.36591H8.68626H10.7645H11.0848H11.2645ZM13.5031 3.69999C13.2219 7.19412 11.3783 8.89748 11.1449 9.09998H0.702551C1.24824 8.55551 2.74031 6.79841 2.99128 3.69999H13.5031ZM0.509835 9.27921L0.509827 9.2792L0.539079 9.1616C0.539123 9.16171 0.539168 9.16183 0.539211 9.16195C0.556171 9.20798 0.539533 9.25474 0.509835 9.27921Z" stroke="white"/>
</svg>
