<svg width="12" height="10" viewBox="0 0 12 10" fill="none" xmlns="http://www.w3.org/2000/svg">
<path d="M11.6651 9.07865C11.0332 8.82084 10.0785 8.35126 9.05945 7.56386C7.97247 6.724 7.35313 6.04606 7.02015 5.61594C7.55706 5.45608 8.34434 5.11862 9.31795 4.40634C11.2245 3.0114 11.0877 0.55257 11.081 0.448577C11.0663 0.22153 10.8898 0.0307192 10.6582 0.00354144C10.4258 -0.0236363 10.2105 0.107723 10.1408 0.324956C10.1395 0.328165 10.0069 0.656374 9.44835 1.01346C9.13085 1.21616 8.43083 1.28694 7.81343 1.34941C7.23066 1.40848 6.68059 1.46378 6.28472 1.62949C5.93452 1.77576 5.68802 1.93731 5.51524 2.08528C5.25617 1.90032 4.89513 1.65799 4.52906 1.46472C4.08193 1.22862 3.49916 1.20974 2.93535 1.19162C2.52362 1.17841 2.09796 1.16445 1.79206 1.06498C1.20736 0.874928 0.927775 0.290795 0.926227 0.287775C0.832194 0.0796014 0.599241 -0.0332618 0.372093 0.0192063C0.145138 0.0716745 -0.0110023 0.274753 0.000606618 0.502178C0.00544368 0.594658 0.135657 2.78624 1.70345 4.28706C2.80475 5.34152 4.05058 5.64255 4.73977 5.72691C4.73977 6.2063 4.78407 6.99275 5.01238 7.86697C5.17433 8.48659 5.481 9.13281 5.92388 9.78791C6.01346 9.92021 6.16515 9.99986 6.32768 9.99986H11.5124C11.5138 10 11.5153 10 11.5163 9.99986C11.7835 9.99986 12 9.78866 12 9.52802C12 9.31777 11.8593 9.13999 11.6651 9.07865Z" fill="#0085FF"/>
</svg>
