<svg width="12" height="12" viewBox="0 0 12 12" fill="none" xmlns="http://www.w3.org/2000/svg">
<path d="M0.291817 7.46581L4.53468 11.7086C4.92289 12.0972 5.55948 12.0972 5.94827 11.7081L0.291817 7.46581ZM0.291817 7.46581C-0.0972723 7.07762 -0.0972723 6.44041 0.291817 6.05176V7.46581ZM8.99984 4.50006C8.17124 4.50006 7.4998 3.82783 7.4998 3.00001C7.4998 2.17098 8.17154 1.49996 8.99984 1.49996C9.82804 1.49996 10.5 2.17087 10.5 2.99998L8.99984 4.50006ZM8.99984 4.50006C9.82832 4.50006 10.5001 3.82796 10.5 3.00001L8.99984 4.50006ZM11.2931 5.65707C11.2931 5.65708 11.293 5.65709 11.293 5.6571L5.59475 11.3545L5.59458 11.3547C5.4009 11.5485 5.08116 11.5482 4.88843 11.3552L4.88823 11.355L0.645366 7.11225L0.644959 7.11184C0.451798 6.91913 0.451491 6.59897 0.645172 6.40551L0.645371 6.40531L6.34356 0.707094C6.34359 0.707064 6.34366 0.706992 6.34369 0.706962C6.38084 0.669889 6.46316 0.613405 6.57797 0.56585C6.69288 0.518255 6.79114 0.5 6.84364 0.5H11C11.2737 0.5 11.5 0.726296 11.5 1.00005V5.15729C11.5 5.20943 11.4818 5.30769 11.4341 5.42279C11.3865 5.53787 11.3299 5.62021 11.2931 5.65707Z" stroke="white"/>
</svg>
