<svg width="11" height="11" viewBox="0 0 11 11" fill="none" xmlns="http://www.w3.org/2000/svg">
<path d="M10.5262 8.28251e-07H0.473891C0.296483 -0.000326346 0.133943 0.0962988 0.0528966 0.250179C-0.0292677 0.406132 -0.014847 0.593929 0.0901221 0.736359L3.77287 5.79762C3.7741 5.79936 3.77544 5.801 3.77667 5.80274C3.91048 5.97898 3.98292 6.19252 3.98326 6.41183V10.5382C3.98248 10.6604 4.03166 10.7778 4.11986 10.8646C4.20818 10.9511 4.32824 11 4.45344 11C4.51705 10.9999 4.58009 10.9876 4.6389 10.9637L6.70832 10.194C6.89366 10.1387 7.01674 9.96799 7.01674 9.76252V6.41183C7.01708 6.19252 7.08952 5.97898 7.22322 5.80274C7.22444 5.801 7.22579 5.79936 7.22702 5.79762L10.9099 0.73625C11.0148 0.593929 11.0293 0.406241 10.9471 0.250288C10.8662 0.0962988 10.7035 -0.000326346 10.5262 8.28251e-07Z" fill="white"/>
</svg>
