<svg width="21" height="25" viewBox="0 0 21 25" fill="none" xmlns="http://www.w3.org/2000/svg">
<path d="M14.389 20.5555C14.389 22.826 12.5484 24.6666 10.2779 24.6666C8.00738 24.6666 6.16667 22.826 6.16667 20.5555C6.16667 18.285 8.00738 16.4443 10.2779 16.4443C12.5484 16.4443 14.389 18.285 14.389 20.5555Z" fill="#ECECEC"/>
<path d="M10.2779 4.11093C9.71051 4.11093 9.25001 3.65061 9.25001 3.08321V1.02759C9.25001 0.460383 9.71051 -0.00012207 10.2779 -0.00012207C10.8451 -0.00012207 11.3056 0.460383 11.3056 1.02759V3.08321C11.3056 3.65061 10.8451 4.11093 10.2779 4.11093Z" fill="#ECECEC"/>
<path d="M19.9175 17.3817C18.3634 16.0681 17.4723 14.1493 17.4723 12.1153V9.24988C17.4723 5.28261 14.2441 2.0555 10.2779 2.0555C6.31158 2.0555 3.08334 5.28261 3.08334 9.24988V12.1153C3.08334 14.1493 2.19225 16.0692 0.629125 17.3909C0.229218 17.7321 0 18.2306 0 18.7568C0 19.7487 0.806778 20.5555 1.79874 20.5555H18.7571C19.7489 20.5555 20.5556 19.7487 20.5556 18.7568C20.5556 18.2306 20.3264 17.7321 19.9175 17.3817Z" fill="white"/>
</svg>
