<svg width="34" height="34" viewBox="0 0 34 34" fill="none" xmlns="http://www.w3.org/2000/svg">
<path d="M17 34C26.3888 34 34 26.3888 34 17C34 7.61116 26.3888 0 17 0C7.61116 0 0 7.61116 0 17C0 26.3888 7.61116 34 17 34Z" fill="#5F7EDD"/>
<path d="M16.9983 21.6308L11.2863 18.2563L16.9983 26.3075L22.7154 18.2563L16.9983 21.6308Z" fill="white"/>
<path d="M22.712 17.1734L16.9983 20.5496L11.2846 17.1734L16.9983 7.69254L22.712 17.1734Z" fill="white"/>
<path d="M22.712 17.1735L16.9983 14.5759V7.69257L22.712 17.1735Z" fill="#C1CCF7"/>
<path d="M22.7154 18.2564L16.9983 26.3076V21.6309L22.7154 18.2564Z" fill="#C1CCF7"/>
<path d="M16.9983 14.5759V20.5497L11.2863 17.1735L16.9983 14.5759Z" fill="#C1CCF7"/>
<path d="M22.7121 17.1733L16.9984 20.5495V14.5757L22.7121 17.1733Z" fill="#8198EE"/>
</svg>
