<svg width="10" height="10" viewBox="0 0 10 10" fill="none" xmlns="http://www.w3.org/2000/svg">
<path opacity="0.5" d="M7.22226 10H1.66667C1.22145 10 0.802924 9.82662 0.488143 9.51182C0.173362 9.19702 0 8.77848 0 8.33332V2.77777C0 2.33258 0.173382 1.91405 0.488163 1.59928C0.802944 1.2845 1.22147 1.11112 1.66669 1.11112H3.88892C4.19577 1.11112 4.44449 1.35984 4.44449 1.66668C4.44449 1.97352 4.19577 2.22223 3.88892 2.22223H1.66667C1.51826 2.22223 1.37877 2.28003 1.27385 2.38494C1.16894 2.48986 1.11113 2.62937 1.11113 2.77777V8.33332C1.11113 8.48173 1.16892 8.62122 1.27385 8.72618C1.37877 8.83107 1.51826 8.88888 1.66667 8.88888H7.22224C7.37065 8.88888 7.51015 8.83109 7.61508 8.72614C7.71999 8.62122 7.77779 8.48171 7.77779 8.3333V6.11111C7.77779 5.80427 8.02652 5.55557 8.33337 5.55557C8.64021 5.55557 8.88895 5.80429 8.88895 6.11111V8.33332C8.88895 8.77851 8.71557 9.19702 8.40077 9.51184C8.08597 9.82662 7.66742 10 7.22226 10ZM3.88892 6.66665C3.74673 6.66665 3.60455 6.61242 3.49609 6.50394C3.27914 6.28699 3.27914 5.9352 3.49609 5.71826L8.10324 1.11112H6.11115C5.80431 1.11112 5.55561 0.8624 5.55561 0.555559C5.55561 0.248718 5.80431 0 6.11115 0H9.44451C9.52135 0 9.59453 0.0156031 9.6611 0.0438012C9.72322 0.070078 9.78155 0.108154 9.83259 0.158049L9.83263 0.158088C9.833 0.158457 9.83337 0.158806 9.83372 0.159175C9.83382 0.159272 9.83395 0.159388 9.83405 0.159485C9.83432 0.159757 9.83463 0.160048 9.8349 0.160339C9.8351 0.160533 9.83527 0.160708 9.83547 0.160902C9.83568 0.161115 9.83591 0.161348 9.83609 0.161523C9.83648 0.161911 9.8369 0.162319 9.83729 0.162726C9.83768 0.163114 9.83811 0.163541 9.8385 0.163929C9.83871 0.164123 9.83894 0.164376 9.8391 0.16455C9.83931 0.164744 9.83947 0.164919 9.83966 0.165113C9.83997 0.165404 9.84024 0.165676 9.84051 0.165986C9.84061 0.166064 9.84075 0.1662 9.84082 0.166297C9.84119 0.166666 9.84156 0.167034 9.84191 0.167403L9.84195 0.167442C9.89182 0.218521 9.92992 0.276858 9.95618 0.338959C9.98438 0.405525 10 0.478688 10 0.555539V3.88887C10 4.19571 9.75126 4.44443 9.44442 4.44443C9.13757 4.44443 8.88887 4.19571 8.88887 3.88887V1.8968L4.28166 6.50396C4.17327 6.61244 4.0311 6.66665 3.88892 6.66665Z" fill="white"/>
</svg>
