<svg width="9" height="9" viewBox="0 0 9 9" fill="none" xmlns="http://www.w3.org/2000/svg">
<path d="M0.191631 8.49191C0.376703 8.677 0.660419 8.73649 0.909442 8.62974L7.36513 5.86261C7.56372 5.77752 7.70736 5.59869 7.74836 5.38659C7.78888 5.17401 7.72223 4.95517 7.56916 4.80203L6.18579 3.41847L8.49138 1.11254C8.71245 0.891355 8.7458 0.544551 8.5706 0.285666C8.39596 0.0324765 8.06138 -0.0714864 7.7731 0.0519125L1.3175 2.81895C1.1189 2.90413 0.975175 3.08288 0.934266 3.29507C0.89366 3.50765 0.960395 3.72648 1.11347 3.87962L2.49683 5.26319L0.191241 7.56911C-0.0606947 7.82108 -0.0669128 8.23333 0.191631 8.49191Z" fill="url(#paint0_linear_30_18509)"/>
<defs>
<linearGradient id="paint0_linear_30_18509" x1="4.19305" y1="8.68258" x2="4.56308" y2="0.014893" gradientUnits="userSpaceOnUse">
<stop stop-color="#121212"/>
<stop offset="1" stop-color="#0A0A0A"/>
</linearGradient>
</defs>
</svg>
