<svg width="14" height="17" viewBox="0 0 14 17" fill="none" xmlns="http://www.w3.org/2000/svg">
<path d="M12.9084 4.98135C12.9162 4.85555 12.8422 4.73656 12.7138 4.67195C12.5892 4.61076 12.4335 4.61415 12.309 4.68214C11.2542 5.27374 10.83 6.28011 10.6587 7.00089C10.215 6.35492 10.1255 5.58313 9.97371 3.87978C9.76353 1.52024 7.26866 0.112691 7.16358 0.0514745C7.03123 -0.0198988 6.86389 -0.0165132 6.73544 0.0582959C6.61087 0.13308 6.54473 0.26908 6.57197 0.401695C6.57588 0.422084 6.97674 2.47222 5.40824 4.06335C4.31453 5.17174 3.20916 6.6439 2.83164 7.91204C2.59034 7.31367 2.41128 6.56229 2.55919 5.79733C2.59034 5.63412 2.48133 5.47434 2.30617 5.41995C2.13104 5.36552 1.93255 5.43013 1.83525 5.57292C1.74961 5.70551 -0.282058 8.84702 0.0331985 11.5329C0.395165 14.6167 2.13492 16.3506 5.50163 16.9796C5.6612 17.0102 5.82079 16.9524 5.91031 16.8334C5.99595 16.7178 5.99595 16.5648 5.90253 16.4492C4.18999 14.3379 5.58724 12.9813 6.42018 12.1721C6.5097 12.0871 6.59144 12.0089 6.65758 11.9375C7.00011 11.5806 7.18305 11.1386 7.28425 10.7544C7.64231 11.2916 7.9965 12.1415 7.72017 13.2159C7.6929 13.3281 7.73183 13.4437 7.82137 13.5253C7.91086 13.6069 8.04321 13.6443 8.17162 13.6239C8.21443 13.6171 8.9423 13.4947 9.45993 13.0153C9.68957 13.7735 9.79077 15.1198 8.35459 16.422C8.23783 16.5308 8.21443 16.6906 8.29229 16.8198C8.36234 16.932 8.49469 17 8.63479 17C8.65816 17 8.68541 16.9966 8.70875 16.9932C10.9389 16.6158 12.4919 15.6536 13.3248 14.1373C14.6443 11.7438 13.6907 8.69742 13.3015 8.04807C12.885 7.35786 12.8773 5.60013 12.9084 4.98135Z" fill="black"/>
</svg>
