<svg width="16" height="16" viewBox="0 0 16 16" fill="none" xmlns="http://www.w3.org/2000/svg">
<path d="M4.31823 7.28529L1.94422 9.65904C1.02403 10.5803 1.02403 12.0771 1.94385 12.9966L3.05776 14.1109C3.5177 14.5704 4.12188 14.7998 4.72669 14.7998C5.3315 14.7998 5.93636 14.5701 6.39683 14.1101L8.74457 11.7616C8.91908 11.5871 8.91908 11.3045 8.74457 11.1302C8.57043 10.9557 8.28784 10.9557 8.11317 11.1302L5.76556 13.4783C5.19207 14.05 4.26091 14.0504 3.68884 13.4791L2.57492 12.3651C2.00322 11.7938 2.00359 10.8625 2.57566 10.2902L4.94941 7.91642C5.12355 7.74227 5.12355 7.45969 4.94941 7.28502C4.7751 7.11082 4.49253 7.11082 4.31839 7.28517L4.31823 7.28529Z" fill="white" fill-opacity="0.34"/>
<path d="M14.8558 4.67316C14.8558 4.04208 14.61 3.44958 14.1643 3.00396L13.0515 1.89077C12.6058 1.44436 12.013 1.19894 11.3826 1.19894H11.3818C10.7511 1.19894 10.1586 1.44473 9.71291 1.89077L7.05602 4.54753C6.88188 4.72167 6.88188 5.00426 7.05602 5.17893C7.23053 5.35307 7.51312 5.35307 7.68742 5.17893L10.3444 2.52231C10.6219 2.24488 10.9904 2.09227 11.3823 2.09227H11.3827C11.7745 2.09227 12.1427 2.24457 12.4201 2.52231L13.5329 3.63586C13.8104 3.91254 13.9627 4.28115 13.9627 4.67297C13.9623 5.06484 13.81 5.43339 13.5329 5.71082L10.9898 8.25262C10.8157 8.42713 10.8157 8.70971 10.9898 8.88438C11.0769 8.97145 11.1912 9.01483 11.3056 9.01483C11.4199 9.01483 11.534 8.97145 11.621 8.88438L14.1642 6.34191C14.6099 5.89581 14.8553 5.30301 14.8557 4.67325L14.8558 4.67316Z" fill="white" fill-opacity="0.34"/>
<path d="M1.87682 1.87649C1.70268 2.05063 1.70268 2.33322 1.87682 2.50789L4.02363 4.65536C4.11107 4.7428 4.22536 4.78618 4.33944 4.78618C4.45351 4.78618 4.56779 4.7428 4.65487 4.65536C4.82937 4.48138 4.82937 4.19863 4.65487 4.02396L2.50847 1.87649C2.33396 1.70198 2.05142 1.70198 1.87692 1.87649H1.87682Z" fill="white" fill-opacity="0.34"/>
<path d="M0.457119 6.85486L3.43421 6.78237C3.68105 6.77616 3.87567 6.57127 3.86977 6.32496C3.86393 6.08202 3.66541 5.8894 3.42372 5.8894H3.41251L0.435691 5.96168C0.188856 5.96789 -0.00577191 6.17247 0.000130788 6.41909C0.00597406 6.66203 0.204488 6.85465 0.446176 6.85465C0.449913 6.85486 0.453809 6.85486 0.457178 6.85486L0.457119 6.85486Z" fill="white" fill-opacity="0.34"/>
<path d="M5.96065 0.438781L5.9107 3.39471C5.90696 3.64119 6.10332 3.84486 6.34984 3.84875H6.35784C6.60078 3.84875 6.79999 3.65361 6.80389 3.40997L6.85348 0.454036C6.85758 0.207565 6.66117 0.00425857 6.4147 0C6.17071 0.0042641 5.96455 0.192458 5.96065 0.438781Z" fill="white" fill-opacity="0.34"/>
<path d="M11.3448 11.9762L13.4918 14.1232C13.5789 14.2103 13.6932 14.2541 13.8073 14.2541C13.9213 14.2541 14.0356 14.2104 14.1231 14.1232C14.2972 13.9487 14.2972 13.6661 14.1231 13.4918L11.9761 11.3449C11.8016 11.1704 11.519 11.1704 11.3447 11.3449C11.1702 11.5191 11.1702 11.802 11.3447 11.9761L11.3448 11.9762Z" fill="white" fill-opacity="0.34"/>
<path d="M9.66416 12.131C9.42263 12.131 9.22396 12.3236 9.21811 12.5666L9.14594 15.5426C9.1401 15.7894 9.33503 15.9938 9.5815 16H9.59271C9.83424 16 10.0329 15.807 10.0391 15.5641L10.1113 12.588C10.1168 12.3416 9.92183 12.1369 9.67536 12.131C9.67178 12.131 9.66788 12.131 9.66415 12.131L9.66416 12.131Z" fill="white" fill-opacity="0.34"/>
<path d="M15.5539 9.14639H15.5459L12.5906 9.1974C12.3438 9.20151 12.1477 9.4046 12.1515 9.65144C12.1559 9.89543 12.3549 10.0902 12.5979 10.0902H12.6059L15.5612 10.0396C15.808 10.0352 16.004 9.83201 15.9999 9.58554C15.9958 9.34117 15.797 9.14639 15.5539 9.14639Z" fill="white" fill-opacity="0.34"/>
</svg>
