<svg width="24" height="22" viewBox="0 0 24 22" fill="none" xmlns="http://www.w3.org/2000/svg">
<path d="M6.67622 0.21335C11.2698 -0.820667 15.8631 1.99933 16.8944 6.60536C17.3631 8.76733 16.9881 10.9294 15.9569 12.7151L22.8002 19.013C23.5502 19.577 23.5502 20.7049 22.894 21.457C22.2378 22.115 21.2067 22.209 20.4566 21.551L13.6133 15.3471C12.6759 16.0051 11.6447 16.5691 10.4261 16.851C5.83246 17.885 1.23913 14.9711 0.207921 10.3651C-0.823284 5.75909 2.08277 1.24725 6.67636 0.213259L6.67622 0.21335ZM7.145 2.28125C3.77017 3.12728 1.61411 6.51112 2.36384 9.89507C3.11378 13.3729 6.48866 15.4409 9.95713 14.6891C13.332 13.9372 15.488 10.5532 14.7383 7.07533C13.9884 3.69138 10.6135 1.5295 7.145 2.28125Z" fill="white" fill-opacity="0.4"/>
</svg>
