<svg width="24" height="22" viewBox="0 0 24 22" fill="none" xmlns="http://www.w3.org/2000/svg">
<path d="M23.9374 8.31354C23.7803 7.84869 23.3492 7.51853 22.8393 7.47456L15.9122 6.87292L13.1731 0.740363C12.9711 0.290926 12.5112 0 12.0001 0C11.489 0 11.0291 0.290926 10.8271 0.741414L8.08796 6.87292L1.15981 7.47456C0.650769 7.51958 0.220827 7.84869 0.0628036 8.31354C-0.0952201 8.77839 0.0507184 9.28825 0.435798 9.60965L5.67182 14.0021L4.12784 20.5077C4.01486 20.9861 4.20896 21.4805 4.62389 21.7674C4.84691 21.9215 5.10784 22 5.37097 22C5.59785 22 5.82289 21.9415 6.02486 21.8259L12.0001 18.4099L17.9731 21.8259C18.4102 22.0774 18.9612 22.0545 19.3752 21.7674C19.7903 21.4796 19.9842 20.985 19.8713 20.5077L18.3273 14.0021L23.5633 9.61053C23.9484 9.28825 24.0954 8.77926 23.9374 8.31354Z" fill="#0085FF"/>
</svg>
