<svg width="23" height="24" viewBox="0 0 23 24" fill="none" xmlns="http://www.w3.org/2000/svg">
<path d="M22.689 1.40088C22.5006 1.32154 22.2838 1.36542 22.14 1.51161L20.0456 3.63322C17.7984 1.29016 14.7961 0 11.5912 0C10.9132 0 10.2294 0.0599541 9.55928 0.177821C4.99761 0.980951 1.30154 4.44043 0.143552 8.99158C0.104516 9.1444 0.137759 9.30666 0.232957 9.43141C0.328406 9.55617 0.475232 9.62914 0.631124 9.62914H3.83913C4.05042 9.62914 4.23956 9.49545 4.31209 9.29416C5.25122 6.69368 7.58406 4.70933 10.2551 4.23914C10.6951 4.16183 11.1429 4.1228 11.5869 4.1228C13.7094 4.1228 15.6917 4.98359 17.1698 6.54647L15.043 8.70074C14.8992 8.84667 14.8561 9.06608 14.9337 9.25665C15.012 9.44749 15.1953 9.57173 15.3991 9.57173H22.4963C22.7743 9.57173 23 9.34314 23 9.06149V1.8721C23 1.66596 22.8768 1.47997 22.689 1.40088Z" fill="white"/>
<path d="M22.3684 14.3706H19.1606C18.9493 14.3706 18.7602 14.504 18.6877 14.7053C17.7485 17.3058 15.4157 19.2904 12.7446 19.7604C12.3044 19.8377 11.8569 19.8767 11.4129 19.8767C9.29031 19.8767 7.30779 19.0159 5.82996 17.453L7.95654 15.2987C8.1006 15.1528 8.14366 14.9334 8.06584 14.7428C7.98777 14.552 7.80417 14.4278 7.60043 14.4278H0.50369C0.225653 14.4278 0 14.6563 0 14.938V22.1276C0 22.334 0.122649 22.52 0.311029 22.5991C0.498905 22.6782 0.715744 22.6343 0.859799 22.4881L2.95414 20.3668C5.2011 22.7096 8.20335 24 11.4083 24C12.0865 24 12.7703 23.94 13.4405 23.8222C18.0019 23.0196 21.6982 19.5596 22.8562 15.0084C22.8952 14.8553 22.862 14.6936 22.767 14.5683C22.6713 14.4438 22.5243 14.3706 22.3684 14.3706Z" fill="white"/>
</svg>
