<svg width="18" height="20" viewBox="0 0 18 20" fill="none" xmlns="http://www.w3.org/2000/svg">
<path fill-rule="evenodd" clip-rule="evenodd" d="M12.8705 19.6226C12.7554 19.6226 12.6787 19.5843 12.6404 19.4692L9.41949 13.9093C9.3428 13.8327 9.38115 13.7176 9.41949 13.6409C9.49618 13.5259 9.61121 13.4876 9.72624 13.5259L9.91796 13.6026L10.9149 12.6823C10.9533 12.644 11.0299 12.6056 11.0683 12.6056L12.4103 12.4906L12.9088 11.3019L12.9855 11.2253C13.0238 11.1486 13.1005 11.1102 13.1389 11.0719L14.0975 10.5734C14.2125 10.4967 14.3659 10.5351 14.4426 10.6501L17.8169 16.4784C17.8552 16.5934 17.8552 16.7085 17.7785 16.7852C17.7018 16.9002 17.5868 16.9385 17.4718 16.8618L13.8291 15.4815L13.1389 19.3926C13.1005 19.5076 13.0238 19.5843 12.9088 19.6226H12.8705Z" fill="white"/>
<path fill-rule="evenodd" clip-rule="evenodd" d="M4.97158 19.6226H4.93323C4.8182 19.5843 4.74151 19.5076 4.70317 19.3925L4.01298 15.5198L0.370284 16.9002C0.255251 16.9385 0.140219 16.9002 0.0635306 16.8235C-0.0131576 16.7084 -0.0131576 16.5934 0.0251865 16.5167L3.20775 10.9952C3.28444 10.8418 3.43781 10.8035 3.55285 10.8801L3.97463 11.1102C4.01298 11.1102 4.05132 11.1485 4.05132 11.1485L4.12801 11.2252L4.2047 11.3019L4.70317 12.4906L6.04521 12.6056C6.08356 12.6056 6.16025 12.644 6.19859 12.6823L7.19554 13.6026L8.26917 13.2191C8.38421 13.2191 8.49924 13.2191 8.53758 13.3342C8.61427 13.4109 8.65262 13.5259 8.57593 13.6409L5.20164 19.5076C5.1633 19.5843 5.08661 19.6226 4.97158 19.6226Z" fill="white"/>
<path fill-rule="evenodd" clip-rule="evenodd" d="M7.11885 14.1777C7.04216 14.1777 7.00382 14.1394 6.92713 14.1011L5.89184 13.1424L4.4731 13.0274C4.39642 13.0274 4.31973 12.9507 4.28138 12.874L3.70622 11.532L2.47921 10.8418C2.36418 10.8035 2.32583 10.7268 2.32583 10.6117V9.15466L1.48226 8.04268C1.40557 7.96599 1.40557 7.85096 1.44392 7.77427L2.05742 6.47057L1.71233 5.09018C1.71233 4.97515 1.75067 4.86012 1.78902 4.82177L2.90099 3.86317L3.1694 2.52113C3.20775 2.40609 3.24609 2.32941 3.36112 2.29106L4.70317 1.86928L5.5084 0.718952C5.58508 0.642264 5.66177 0.60392 5.7768 0.60392L7.15719 0.757296L8.38421 0.0287581C8.49924 -0.00958603 8.57593 -0.00958603 8.69096 0.0287581L9.91797 0.757296L11.3367 0.60392C11.4517 0.60392 11.5284 0.642264 11.6051 0.718952L12.372 1.86928L13.7524 2.29106C13.8291 2.32941 13.9058 2.40609 13.9441 2.52113L14.2125 3.86317L15.2478 4.82177C15.3245 4.89846 15.3628 4.97515 15.3628 5.05184L15.0561 6.47057L15.6312 7.77427C15.6696 7.85096 15.6696 7.96599 15.6312 8.04268L14.7877 9.15466V10.6117C14.7877 10.6884 14.7493 10.8035 14.6343 10.8418L13.4073 11.532L12.8321 12.874C12.7938 12.9507 12.7171 13.0274 12.6021 13.0274L11.2217 13.1424L10.1864 14.1011C10.1097 14.1777 9.99466 14.1777 9.91797 14.1777L8.53758 13.6793L7.19554 14.1777C7.19554 14.1777 7.15719 14.1777 7.11885 14.1777Z" fill="white"/>
<path fill-rule="evenodd" clip-rule="evenodd" d="M8.53758 12.4523C7.11885 12.4523 5.7768 11.8771 4.74151 10.8802C3.74456 9.84487 3.1694 8.50282 3.1694 7.08409C3.1694 5.66536 3.74456 4.32331 4.74151 3.28802C5.7768 2.29107 7.11885 1.71591 8.53758 1.71591C11.4901 1.71591 13.9058 4.13159 13.9058 7.08409C13.9058 10.0366 11.4901 12.4523 8.53758 12.4523Z" fill="#0A0A0A"/>
<path fill-rule="evenodd" clip-rule="evenodd" d="M8.53757 11.4553C7.38724 11.4553 6.31361 10.9952 5.47004 10.1899C4.66481 9.34638 4.20468 8.2344 4.20468 7.08408C4.20468 4.70674 6.16023 2.75119 8.53757 2.75119C9.68789 2.75119 10.7999 3.21132 11.6051 4.01655C12.4487 4.82177 12.9088 5.93375 12.9088 7.08408C12.9088 9.49976 10.9532 11.4553 8.53757 11.4553Z" fill="white"/>
<path fill-rule="evenodd" clip-rule="evenodd" d="M10.3398 10.1133C10.3014 10.1133 10.2631 10.1133 10.2247 10.0749L8.53759 9.15467L6.88879 10.0749C6.8121 10.1133 6.69707 10.1133 6.62038 10.0749C6.5437 9.99824 6.50535 9.88321 6.50535 9.80652L6.85045 7.92766L5.47006 6.62396C5.39337 6.54727 5.39337 6.43224 5.39337 6.35555C5.43172 6.24052 5.54675 6.16383 5.62344 6.16383L7.5023 5.93376L8.30753 4.20828C8.34587 4.13159 8.42256 4.0549 8.53759 4.0549C8.65262 4.0549 8.72931 4.09325 8.76765 4.20828L9.61123 5.93376L11.4901 6.16383C11.6051 6.16383 11.6818 6.24052 11.7202 6.35555C11.7585 6.43224 11.7202 6.54727 11.6435 6.62396L10.2631 7.92766L10.6082 9.80652C10.6465 9.88321 10.5698 9.99824 10.4931 10.0749C10.4548 10.1133 10.3781 10.1133 10.3398 10.1133Z" fill="#121212"/>
</svg>
