<svg width="27" height="18" viewBox="0 0 27 18" fill="none" xmlns="http://www.w3.org/2000/svg">
<path d="M20.1399 9.90674H1.18447C0.950187 9.90679 0.721183 9.97956 0.526404 10.1158C0.331624 10.2521 0.179815 10.4458 0.0901678 10.6724C0.000520235 10.899 -0.022941 11.1483 0.0227506 11.3889C0.0684423 11.6295 0.181235 11.8504 0.34687 12.0239L5.08574 16.985C5.30918 17.2109 5.60844 17.3359 5.91907 17.3331C6.2297 17.3303 6.52684 17.1998 6.7465 16.9699C6.96615 16.7399 7.09075 16.4288 7.09345 16.1036C7.09615 15.7784 6.97673 15.4651 6.76093 15.2312L4.04449 12.3873H20.1399C20.4541 12.3873 20.7555 12.2566 20.9777 12.024C21.1998 11.7914 21.3247 11.476 21.3247 11.147C21.3247 10.8181 21.1998 10.5026 20.9777 10.27C20.7555 10.0374 20.4541 9.90674 20.1399 9.90674Z" fill="white"/>
<path d="M25.7163 5.30913L20.9774 0.348037C20.754 0.122111 20.4547 -0.00290105 20.1441 -7.51847e-05C19.8335 0.00275068 19.5363 0.133189 19.3167 0.363145C19.097 0.593102 18.9724 0.904178 18.9697 1.22937C18.967 1.55457 19.0864 1.86786 19.3023 2.10178L22.0187 4.94573H5.92324C5.60904 4.94573 5.3077 5.0764 5.08552 5.30899C4.86334 5.54159 4.73853 5.85706 4.73853 6.186C4.73853 6.51494 4.86334 6.83041 5.08552 7.063C5.3077 7.2956 5.60904 7.42627 5.92324 7.42627H24.8787C25.113 7.42622 25.342 7.35345 25.5368 7.21716C25.7316 7.08088 25.8834 6.88719 25.973 6.66059C26.0627 6.434 26.0861 6.18466 26.0404 5.94411C25.9947 5.70355 25.8819 5.48258 25.7163 5.30913Z" fill="white"/>
</svg>
