<svg width="18" height="12" viewBox="0 0 18 12" fill="none" xmlns="http://www.w3.org/2000/svg">
<path d="M13.9092 6.85864H0.818024C0.656225 6.85868 0.498069 6.90906 0.363549 7.00341C0.229029 7.09776 0.124185 7.23185 0.0622724 7.38873C0.000359289 7.5456 -0.0158437 7.71822 0.0157122 7.88476C0.0472681 8.05129 0.125166 8.20427 0.239558 8.32436L3.51235 11.759C3.66666 11.9154 3.87334 12.0019 4.08787 12C4.3024 11.998 4.50761 11.9077 4.65932 11.7485C4.81102 11.5893 4.89706 11.3739 4.89893 11.1488C4.90079 10.9237 4.81832 10.7068 4.66928 10.5448L2.79324 8.57594H13.9092C14.1262 8.57594 14.3343 8.48548 14.4877 8.32445C14.6412 8.16342 14.7274 7.94502 14.7274 7.71729C14.7274 7.48956 14.6412 7.27116 14.4877 7.11013C14.3343 6.94911 14.1262 6.85864 13.9092 6.85864Z" fill="white"/>
<path d="M17.7604 3.67563L14.4877 0.241033C14.3333 0.0846232 14.1267 -0.00192391 13.9121 3.24592e-05C13.6976 0.00198882 13.4924 0.092292 13.3407 0.251493C13.189 0.410693 13.1029 0.626054 13.1011 0.851189C13.0992 1.07632 13.1817 1.29322 13.3307 1.45516L15.2068 3.42405H4.09081C3.87381 3.42405 3.6657 3.51451 3.51226 3.67554C3.35882 3.83657 3.27261 4.05497 3.27261 4.2827C3.27261 4.51043 3.35882 4.72883 3.51226 4.88986C3.6657 5.05088 3.87381 5.14135 4.09081 5.14135H17.182C17.3438 5.14131 17.5019 5.09093 17.6365 4.99658C17.771 4.90223 17.8758 4.76814 17.9377 4.61127C17.9996 4.45439 18.0158 4.28177 17.9843 4.11524C17.9527 3.9487 17.8748 3.79572 17.7604 3.67563Z" fill="white" fill-opacity="0.42"/>
</svg>
