<svg width="15" height="19" viewBox="0 0 15 19" fill="none" xmlns="http://www.w3.org/2000/svg">
<path fill-rule="evenodd" clip-rule="evenodd" d="M14.0434 2.46732C14.0434 1.81426 13.7824 1.18859 13.3185 0.727293C12.8501 0.260694 12.2141 0 11.5518 0H2.49146C1.82915 0 1.19312 0.260694 0.724703 0.727293C0.260815 1.18859 -0.00012207 1.81426 -0.00012207 2.46732V17.4347C-0.00012207 18.0462 0.360478 18.5994 0.917687 18.8539C1.48396 19.1138 2.14989 19.0218 2.62284 18.6189L6.87937 14.9851C6.96091 14.9153 7.08232 14.9153 7.16386 14.9851L11.4204 18.6189C11.8933 19.0218 12.5593 19.1138 13.1255 18.8539C13.6828 18.5994 14.0434 18.0462 14.0434 17.4347V2.46732Z" fill="white"/>
</svg>
