<svg width="22" height="21" viewBox="0 0 22 21" fill="none" xmlns="http://www.w3.org/2000/svg">
<path d="M18.776 3.66964C16.7902 1.84526 14.1499 0.840576 11.3415 0.840576C8.53305 0.840576 5.89271 1.84526 3.9069 3.66961C1.92102 5.49395 0.827393 7.91957 0.827393 10.4996C0.827393 13.0796 1.92102 15.5052 3.9069 17.3295C5.89271 19.1539 8.53305 20.1585 11.3415 20.1585C14.1499 20.1585 16.7902 19.1539 18.7761 17.3295C20.7619 15.5052 21.8555 13.0795 21.8555 10.4995C21.8555 7.91953 20.7619 5.49395 18.776 3.66964ZM4.77904 4.47085C5.70358 3.6215 6.78895 2.97367 7.97195 2.55082C7.65685 2.91221 7.36201 3.32758 7.0918 3.79476C6.77798 4.33732 6.50721 4.9332 6.28169 5.56967C5.50044 5.45056 4.77657 5.30409 4.12988 5.13219C4.33256 4.90332 4.5488 4.68237 4.77904 4.47085ZM3.38317 6.10718C4.13957 6.32968 5.0046 6.51731 5.94848 6.66593C5.68563 7.69092 5.53092 8.79389 5.49399 9.93305H2.08152C2.17845 8.56596 2.62538 7.26125 3.38317 6.10718ZM3.31602 14.7872C2.59914 13.6591 2.17553 12.392 2.08148 11.0661H5.49634C5.53667 12.1727 5.6883 13.2443 5.94228 14.2425C4.97901 14.3859 4.09226 14.5688 3.31602 14.7872ZM4.77904 16.5283C4.51701 16.2875 4.27297 16.0347 4.04671 15.7716C4.7171 15.6008 5.46656 15.4562 6.27331 15.3402C6.50043 15.9855 6.77412 16.5893 7.09176 17.1386C7.38624 17.6476 7.71 18.095 8.05733 18.4782C6.84123 18.0562 5.7258 17.398 4.77904 16.5283ZM10.7247 18.8801C9.788 18.639 8.90187 17.8532 8.181 16.6069C7.92886 16.171 7.70741 15.6955 7.51771 15.1887C8.53338 15.086 9.61415 15.0253 10.7247 15.011V18.8801ZM10.7247 13.8778C9.49312 13.8933 8.29267 13.9643 7.16844 14.0856C6.92046 13.1438 6.77125 12.1245 6.7303 11.0661H10.7248L10.7247 13.8778ZM10.7247 9.93301H6.72796C6.76538 8.84509 6.91697 7.79728 7.17267 6.83153C8.28971 6.95982 9.48765 7.03784 10.7247 7.06018V9.93301ZM10.7247 5.92694C9.60984 5.90631 8.53145 5.83952 7.52296 5.73056C7.71152 5.22904 7.93125 4.75832 8.181 4.32642C8.90182 3.08011 9.788 2.29426 10.7247 2.0532V5.92694ZM19.3386 6.16736C20.0727 7.30656 20.5061 8.58962 20.6015 9.93301H17.189C17.1525 8.80699 17.0007 7.71639 16.7434 6.70151C17.6935 6.56055 18.5692 6.38122 19.3386 6.16736ZM17.9038 4.47085C18.1514 4.69833 18.3828 4.93678 18.5985 5.18433C17.9384 5.34993 17.2033 5.49048 16.4134 5.60359C16.1855 4.95433 15.9106 4.34698 15.5912 3.79476C15.3209 3.32758 15.0261 2.91221 14.711 2.55082C15.8939 2.97367 16.9793 3.6215 17.9038 4.47085ZM11.9582 11.0661H15.9527C15.9114 12.1327 15.7602 13.1598 15.5087 14.1077C14.3918 13.9801 13.1944 13.9028 11.9582 13.8811V11.0661ZM11.9582 9.93301V7.06395C13.1905 7.04909 14.3919 6.97864 15.5172 6.85779C15.7687 7.81626 15.9179 8.85494 15.955 9.93301H11.9582ZM11.9581 2.0532C12.8948 2.29426 13.781 3.08011 14.5019 4.32642C14.7556 4.76511 14.9783 5.24395 15.1689 5.75444C14.1518 5.85677 13.0698 5.91702 11.9581 5.93079V2.0532ZM11.9582 18.8801V15.0143C13.072 15.0344 14.1496 15.1005 15.1577 15.2088C14.9696 15.7081 14.7506 16.1768 14.5019 16.6069C13.781 17.8532 12.8949 18.639 11.9582 18.8801ZM17.9038 16.5283C16.9571 17.398 15.8417 18.0562 14.6255 18.4781C14.9729 18.0949 15.2966 17.6476 15.5911 17.1386C15.9041 16.5975 16.1742 16.0033 16.3994 15.3688C17.1988 15.49 17.9384 15.6399 18.5973 15.8162C18.3819 16.0632 18.151 16.3012 17.9038 16.5283ZM19.334 14.8389C18.5687 14.6129 17.6912 14.4227 16.7332 14.2726C16.9918 13.2659 17.1459 12.1838 17.1867 11.0661H20.6015C20.5059 12.4123 20.071 13.6979 19.334 14.8389Z" fill="white"/>
</svg>
