<svg width="51" height="52" viewBox="0 0 51 52" fill="none" xmlns="http://www.w3.org/2000/svg">
<path d="M25.7029 51.0991C39.5647 51.0991 50.8019 39.8618 50.8019 26C50.8019 12.1382 39.5647 0.90097 25.7029 0.90097C11.841 0.90097 0.603821 12.1382 0.603821 26C0.603821 39.8618 11.841 51.0991 25.7029 51.0991Z" fill="#5F7EDD"/>
<path d="M25.7004 32.8369L17.2671 27.8548L25.7004 39.7417L34.1412 27.8548L25.7004 32.8369Z" fill="white"/>
<path d="M34.1359 26.2561L25.7001 31.2407L17.2643 26.2561L25.7001 12.2583L34.1359 26.2561Z" fill="white"/>
<path d="M34.1364 26.2561L25.7006 22.421V12.2584L34.1364 26.2561Z" fill="#C1CCF7"/>
<path d="M34.1414 27.855L25.7006 39.7419V32.8372L34.1414 27.855Z" fill="#C1CCF7"/>
<path d="M25.7004 22.421V31.2408L17.2672 26.2562L25.7004 22.421Z" fill="#C1CCF7"/>
<path d="M34.1363 26.256L25.7005 31.2406V22.4208L34.1363 26.256Z" fill="#8198EE"/>
</svg>
